<svg id="visual" viewBox="0 0 540 960" width="540" height="960" xmlns="http://www.w3.org/2000/svg" xmlns:xlink="http://www.w3.org/1999/xlink" version="1.1"><path d="M0 356L22.5 364C45 372 90 388 135 389.7C180 391.3 225 378.7 270 372.3C315 366 360 366 405 369.2C450 372.3 495 378.7 517.5 381.8L540 385L540 0L517.5 0C495 0 450 0 405 0C360 0 315 0 270 0C225 0 180 0 135 0C90 0 45 0 22.5 0L0 0Z" fill="#b988e8"></path><path d="M0 596L22.5 600.8C45 605.7 90 615.3 135 617C180 618.7 225 612.3 270 610.7C315 609 360 612 405 613.5C450 615 495 615 517.5 615L540 615L540 383L517.5 379.8C495 376.7 450 370.3 405 367.2C360 364 315 364 270 370.3C225 376.7 180 389.3 135 387.7C90 386 45 370 22.5 362L0 354Z" fill="#9851db"></path><path d="M0 961L22.5 961C45 961 90 961 135 961C180 961 225 961 270 961C315 961 360 961 405 961C450 961 495 961 517.5 961L540 961L540 613L517.5 613C495 613 450 613 405 611.5C360 610 315 607 270 608.7C225 610.3 180 616.7 135 615C90 613.3 45 603.7 22.5 598.8L0 594Z" fill="#6f39a3"></path></svg>